<svg id="Layer_1" enable-background="new 0 0 50 50" height="512" viewBox="0 0 50 50" width="512" xmlns="http://www.w3.org/2000/svg"><g><g><path d="m47.5 21.7c-.3-.5-.8-.8-1.3-.9-2.8-.4-6.5-2.7-8.2-3.1-3.7-.9-13-2.5-16.5-1.2-5.7 2.3-7.1 3.9-8.1 4.3-3.6.4-6.8 1.1-9.7 2-.4.2-.7.4-1 .7-1.4 1.5-1.9 3.3-1.7 5.4.2 1.5 1.5 2.6 3 2.6-.2-.6-.3-1.2-.3-1.8 0-3.4 2.8-6.2 6.2-6.2s6.2 2.8 6.2 6.2c0 .6-.1 1.3-.3 1.8h17.7c-.2-.6-.3-1.2-.3-1.8 0-3.4 2.8-6.2 6.2-6.2s6.2 2.8 6.2 6.2c0 .6-.1 1.1-.2 1.6.7-.2 1.5-.4 2.4-.9.5-.3.8-.8.9-1.4.5-2.5.1-5-1.2-7.3zm-21.5-.5-8.9.3-.7-.2c1.7-1.1 3.6-2 5.8-2.9.1 0 .2-.1.3-.1 1.1-.2 2.3-.2 3.5-.2zm10.6-.4-8.6.3v-2.9c2.8.1 5.8.6 9.2 1.4z"/></g><path d="m5.8 29.7c0-2.3 1.9-4.2 4.2-4.2s4.2 1.9 4.2 4.2-1.9 4.2-4.2 4.2-4.2-1.9-4.2-4.2z"/><path d="m43.8 29.7c0 2.3-1.9 4.2-4.2 4.2s-4.2-1.9-4.2-4.2 1.9-4.2 4.2-4.2 4.2 1.9 4.2 4.2z"/></g></svg>